<?xml version="1.0" encoding="UTF-8" standalone="no" ?>
<!DOCTYPE svg PUBLIC "-//W3C//DTD SVG 1.1//EN" "http://www.w3.org/Graphics/SVG/1.1/DTD/svg11.dtd">
<svg xmlns="http://www.w3.org/2000/svg" xmlns:xlink="http://www.w3.org/1999/xlink" version="1.1" width="43.73829312200149" height="65.15737679225042" viewBox="118.58847248661831 128.2491070183369 43.73829312200149 65.15737679225042" xml:space="preserve">
<desc>Created with Fabric.js 4.6.0</desc>
<defs>
</defs>
<g transform="matrix(1 0 0 1 140.46 160.83)" id="PXb9qgAt50kgzrw0yhVny"  >
<path style="stroke: none; stroke-width: 1; stroke-dasharray: none; stroke-linecap: butt; stroke-dashoffset: 0; stroke-linejoin: miter; stroke-miterlimit: 4; fill: rgb(25,185,98); fill-rule: nonzero; opacity: 1;" vector-effect="non-scaling-stroke"  transform=" translate(-21.41, -32.08)" d="M 19.57 0.78 L 0.78 19.5 C -0.2243756717201284 20.547619909404986 -0.20800474108340117 22.2056660838827 0.8168607208276508 23.23325002182004 C 1.8417261827387028 24.260833959757385 3.499723173148304 24.281597000546277 4.55 23.28 L 18.67 9.21 L 18.67 61.33 C 18.609262022075093 62.32107227882419 19.103507370344595 63.263989678746086 19.95310385808219 63.77789547929725 C 20.802700345819787 64.29180127984841 21.86729965418022 64.29180127984841 22.71689614191781 63.77789547929725 C 23.566492629655407 63.263989678746086 24.06073797792491 62.32107227882419 24 61.33 L 24 9 L 38.11 23.27 C 38.767505466299774 24.009665168161153 39.7802040342905 24.324973890835427 40.74138753643248 24.089295562567756 C 41.702571038574455 23.85361723430009 42.45455042365101 23.1056165761287 42.69532451638754 22.145696873511934 C 42.93609860912406 21.185777170895168 42.62616669175275 20.17142013966825 41.89 19.509999999999998 L 23.35 0.79 C 22.849114150508328 0.288037996415775 22.16912092569835 0.005948037460204558 21.46 0.005948037460204558 C 20.75087907430165 0.005948037460204558 20.070885849491674 0.288037996415775 19.57 0.7900000000000003 Z" stroke-linecap="round" />
</g>
</svg>